<svg xmlns="http://www.w3.org/2000/svg" version="1.1" xmlns:xlink="http://www.w3.org/1999/xlink" width="1000" height="1000"><g clip-path="url(#SvgjsClipPath1591)"><rect width="1000" height="1000" fill="#ffffff"></rect><g transform="matrix(1.1125395569620253,0,0,1.1125395569620253,50,79.62025316455697)"><svg xmlns="http://www.w3.org/2000/svg" version="1.1" xmlns:xlink="http://www.w3.org/1999/xlink" width="808.96" height="755.712"><svg preserveAspectRatio="xMidYMid meet" viewBox="110.592 137.216 808.96 755.712" xmlns="http://www.w3.org/2000/svg" version="1.0" style="max-height: 500px" width="808.96" height="755.712">

<g stroke="none" fill="#000000" transform="translate(0.000000,1024.000000) scale(0.100000,-0.100000)">
<path d="M4725 8800 c-16 -4 -145 -36 -285 -70 -925 -225 -1631 -402 -1667
-419 -85 -41 -77 97 -83 -1440 l-5 -1365 -30 -7 c-48 -12 -1032 -265 -1228
-316 -162 -42 -180 -49 -207 -79 -21 -24 -30 -47 -35 -86 -3 -29 -4 -676 -2
-1438 3 -1505 0 -1413 56 -1464 11 -10 111 -47 223 -83 112 -35 307 -98 433
-138 414 -132 1135 -362 1365 -435 123 -39 242 -73 265 -76 33 -5 104 16 435
131 217 75 512 176 655 225 143 49 398 136 568 194 l308 106 197 -64 c268 -88
907 -292 1125 -360 98 -31 193 -56 212 -56 18 0 352 113 742 251 389 138 825
291 968 341 143 50 275 99 293 110 18 11 40 34 50 51 16 30 17 121 14 1422 -4
1533 1 1420 -64 1468 -20 15 -194 59 -595 152 -313 73 -703 164 -868 203 -165
38 -315 73 -332 77 l-33 7 -2 1301 -3 1302 -22 31 c-12 17 -35 36 -50 42 -16
6 -158 39 -318 72 -159 34 -540 115 -845 180 -617 132 -611 131 -905 194 -207
45 -271 52 -330 36z m928 -450 c447 -99 822 -184 835 -188 17 -5 -13 -16 -120
-43 -79 -20 -377 -96 -663 -170 -286 -73 -533 -133 -550 -133 -16 0 -246 49
-510 108 -484 108 -1068 239 -1160 260 l-50 12 110 29 c286 77 1224 303 1258
304 21 1 404 -80 850 -179z m-2366 -399 c432 -98 1169 -265 1353 -308 85 -19
209 -48 275 -62 l120 -27 3 -228 2 -228 -27 7 c-54 13 -452 107 -938 220 -269
63 -587 137 -705 165 -118 28 -257 60 -307 72 l-93 21 0 219 c0 120 2 218 4
218 3 0 143 -31 313 -69z m3636 -362 c-5 -4 -87 -28 -183 -54 -96 -25 -445
-120 -775 -210 -330 -90 -612 -167 -628 -170 l-27 -7 2 208 3 209 210 56 c194
52 1302 349 1370 367 l30 8 3 -200 c1 -110 -1 -203 -5 -207z m7 -1158 l0 -879
-27 -11 c-129 -52 -1571 -537 -1577 -530 -2 2 -5 418 -7 924 l-4 919 305 88
c168 49 337 97 375 107 173 46 921 255 933 260 1 0 2 -394 2 -878z m-3610 790
c184 -44 439 -105 565 -136 127 -30 289 -69 360 -87 72 -17 279 -67 460 -112
l330 -81 3 -947 c1 -522 0 -948 -3 -948 -3 0 -141 38 -308 84 -166 46 -428
119 -582 161 -154 42 -352 96 -440 121 -88 25 -288 80 -445 123 l-285 77 -3
912 c-1 502 1 912 6 912 4 0 158 -36 342 -79z m4065 -1899 c584 -142 1043
-252 1050 -252 24 0 -16 -14 -136 -49 -74 -21 -255 -76 -404 -121 -148 -45
-315 -95 -370 -112 -55 -16 -184 -56 -287 -89 l-187 -60 -541 147 c-297 81
-538 150 -534 153 3 3 281 99 617 213 417 141 622 205 642 203 17 -2 84 -17
150 -33z m-4560 -88 c28 -8 172 -49 320 -90 820 -228 1266 -354 1289 -363 13
-5 -49 -26 -190 -65 -115 -32 -312 -87 -437 -122 l-228 -65 -312 86 c-310 86
-1302 367 -1365 387 -18 5 -32 11 -30 13 3 4 449 126 723 199 150 40 163 41
230 20z m5995 -544 c0 -198 0 -201 -22 -210 -13 -5 -196 -62 -408 -126 -517
-155 -1063 -319 -1127 -338 l-53 -15 0 204 0 204 73 22 c39 11 106 31 147 44
41 13 219 67 395 121 176 53 462 141 635 194 173 54 325 98 338 99 l22 1 0
-200z m-7170 99 c127 -35 424 -119 970 -274 85 -25 303 -85 484 -135 181 -49
331 -91 333 -93 2 -2 2 -98 1 -214 l-3 -209 -135 37 c-74 20 -250 68 -390 107
-140 39 -338 94 -440 121 -102 28 -257 71 -345 95 -88 24 -271 75 -407 112
l-248 68 0 219 c0 205 1 219 18 212 9 -3 82 -24 162 -46z m4035 -68 c39 -11
147 -40 240 -65 94 -24 253 -67 355 -95 262 -70 590 -157 623 -165 l27 -6 0
-200 c0 -110 -4 -200 -8 -200 -5 0 -112 29 -238 63 -126 35 -421 117 -656 182
l-428 119 0 193 c0 106 3 193 8 193 4 0 39 -9 77 -19z m-375 -195 l0 -203 -27
-6 c-16 -3 -289 -80 -608 -171 -571 -162 -942 -266 -951 -266 -2 0 -4 92 -4
204 l0 205 53 15 c169 49 1518 424 1530 425 4 1 7 -91 7 -203z m3510 -1191 c0
-684 -3 -866 -12 -869 -7 -2 -260 -92 -563 -199 -302 -108 -651 -232 -775
-275 -124 -44 -233 -83 -242 -87 -17 -7 -18 40 -18 904 0 501 1 911 3 911 9 0
892 269 1362 414 116 36 218 65 228 66 16 0 17 -48 17 -865z m-7035 704 c138
-38 304 -85 370 -103 66 -19 260 -73 430 -121 171 -48 431 -120 579 -161 148
-40 271 -75 273 -77 7 -8 8 -1866 0 -1873 -8 -8 -34 0 -437 129 -258 83 -680
217 -1125 358 -121 39 -262 84 -312 100 l-93 31 0 903 0 904 33 -10 c17 -6
145 -41 282 -80z m4202 -76 c208 -58 398 -112 423 -119 39 -11 351 -95 480
-128 l45 -12 3 -921 2 -921 -107 34 c-60 18 -227 72 -373 118 -146 47 -399
127 -562 178 l-298 93 -1 340 c-5 1149 -5 1445 2 1445 4 0 177 -48 386 -107z
m-667 -812 l0 -889 -252 -86 c-139 -47 -491 -166 -783 -265 -291 -98 -538
-182 -547 -186 -17 -7 -18 42 -18 934 l0 940 43 11 c86 23 446 122 582 160 77
22 302 85 500 141 198 55 378 106 400 114 22 7 48 14 58 14 16 1 17 -48 17
-888z"></path>
<path d="M6150 6853 c-146 -41 -277 -84 -291 -94 -41 -29 -62 -91 -48 -142 6
-23 18 -50 27 -61 21 -23 73 -46 105 -46 12 0 144 35 292 79 318 93 335 102
342 191 4 46 1 61 -19 90 -29 42 -61 60 -108 59 -19 0 -154 -34 -300 -76z"></path>
<path d="M8040 3726 c-151 -45 -290 -90 -308 -100 -94 -49 -74 -217 29 -248
47 -13 31 -17 374 86 246 73 280 88 301 127 31 62 8 171 -43 197 -49 26 -79
21 -353 -62z"></path>
<path d="M4565 3579 c-268 -78 -317 -97 -340 -133 -63 -96 5 -223 115 -213 49
4 518 141 563 164 115 58 71 255 -57 252 -22 0 -149 -32 -281 -70z"></path>
</g>
</svg></svg></g></g><defs><clipPath id="SvgjsClipPath1591"><rect width="1000" height="1000" x="0" y="0" rx="200" ry="200"></rect></clipPath></defs></svg>