<?xml version="1.0" encoding="utf-8"?>
<svg version="1.0" xmlns="http://www.w3.org/2000/svg" width="1024.000000pt" height="1024.000000pt" viewBox="0 0 1024.000000 1024.000000" preserveAspectRatio="xMidYMid meet">
  <g transform="matrix(0.1, 0, 0, -0.1, -3.695861, 1024)" fill="#000000" stroke="none">
    <path d="M4380 8716 c-228 -57 -530 -132 -670 -166 -657 -160 -935 -231 -957 -245 -12 -8 -31 -27 -40 -42 -17 -25 -18 -110 -23 -1392 l-5 -1365 -245 -61 c-135 -34 -353 -90 -485 -125 -132 -34 -340 -88 -462 -120 -229 -59 -260 -71 -290 -117 -17 -26 -18 -109 -20 -1438 -1 -922 2 -1424 9 -1449 18 -73 44 -87 284 -164 120 -39 453 -146 739 -237 758 -244 808 -260 1055 -337 156 -49 240 -71 275 -70 35 0 99 17 210 57 88 31 270 94 405 140 225 76 859 295 1193 411 l138 48 62 -21 c108 -36 603 -197 1187 -384 159 -50 241 -72 280 -73 46 0 106 18 370 112 441 158 791 282 1175 417 452 159 458 161 491 196 l29 30 3 1387 c2 925 -1 1399 -7 1422 -23 78 -34 83 -412 171 -189 44 -459 107 -599 140 -140 33 -334 77 -430 100 -96 22 -235 53 -307 70 l-133 31 -2 1296 c-3 1261 -4 1298 -22 1329 -11 17 -33 39 -50 47 -17 9 -195 50 -396 92 -201 41 -457 96 -570 120 -321 71 -1365 295 -1365 293 0 0 -187 -46 -415 -103z m785 -255 c570 -126 1313 -292 1334 -299 18 -6 -6 -15 -110 -40 -132 -31 -645 -161 -1033 -262 l-199 -51 -151 35 c-296 67 -518 117 -1036 231 -289 64 -527 118 -529 121 -2 2 2 6 10 8 41 15 1265 313 1344 328 22 4 89 -9 370 -71z m-1930 -496 c110 -25 355 -81 545 -125 398 -90 1131 -257 1205 -274 l50 -11 3 -228 c1 -125 -1 -227 -6 -227 -4 0 -42 9 -83 19 -161 42 -1955 461 -1973 461 -3 0 -6 100 -6 221 l0 222 33 -6 c17 -3 122 -27 232 -52z m3693 -180 l-3 -199 -180 -49 c-99 -26 -301 -81 -450 -122 -148 -40 -387 -105 -530 -144 -143 -39 -298 -82 -344 -96 -47 -14 -90 -25 -98 -25 -10 0 -13 42 -13 208 l0 209 233 61 c333 89 875 234 1067 286 91 25 197 53 235 64 39 10 73 16 78 12 4 -4 6 -96 5 -205z m-3348 -625 c212 -51 520 -125 685 -165 165 -40 407 -98 538 -130 l237 -57 0 -949 c0 -522 -2 -949 -4 -949 -2 0 -167 45 -367 100 -602 166 -1006 277 -1359 374 l-335 91 -3 917 -2 916 112 -28 c62 -15 286 -69 498 -120z m3348 -732 l-3 -881 -465 -160 c-783 -268 -1135 -385 -1142 -380 -5 2 -8 419 -8 926 l0 923 238 68 c130 37 390 110 577 161 187 52 441 123 565 159 124 35 228 65 233 65 4 1 6 -396 5 -881z m694 -1162 c211 -51 481 -117 601 -146 120 -28 217 -54 214 -56 -2 -2 -96 -31 -208 -65 -112 -33 -276 -82 -364 -109 -88 -27 -308 -94 -489 -150 l-330 -101 -245 66 c-135 37 -277 76 -316 87 -38 11 -151 43 -250 70 -269 74 -272 75 -255 82 8 3 274 93 590 200 316 107 586 199 600 204 14 6 35 11 47 11 12 1 194 -41 405 -93z m-4723 -51 c64 -19 181 -52 261 -74 80 -22 251 -69 380 -106 129 -36 363 -102 520 -146 157 -44 309 -87 339 -95 29 -8 51 -17 48 -20 -4 -5 -140 -43 -609 -173 l-258 -71 -362 100 c-200 55 -408 113 -463 128 -139 40 -660 187 -775 219 -52 14 -101 29 -109 33 -14 8 50 26 534 156 171 45 325 83 344 83 19 1 86 -15 150 -34z m5919 -530 l-3 -199 -35 -12 c-19 -7 -109 -35 -200 -63 -923 -278 -1368 -411 -1374 -411 -4 0 -5 91 -2 203 3 153 8 204 18 209 7 5 81 28 163 52 83 24 348 105 590 180 737 226 830 254 838 247 4 -4 6 -97 5 -206z m-7235 125 c192 -55 782 -222 992 -280 172 -47 557 -155 813 -227 l52 -14 1 -192 c1 -178 0 -229 -5 -234 -1 -1 -53 13 -116 32 -63 18 -214 60 -335 94 -121 33 -402 110 -625 172 -485 134 -872 239 -882 239 -9 0 -11 440 -3 440 3 0 51 -13 108 -30z m4127 -93 c171 -47 942 -255 1065 -287 66 -17 128 -33 138 -36 15 -5 17 -23 17 -205 0 -153 -3 -199 -12 -199 -7 0 -116 30 -243 65 -126 36 -378 106 -560 156 -181 50 -373 103 -425 117 l-95 27 -3 199 c-2 157 0 197 10 193 7 -2 56 -16 108 -30z m-400 -189 l0 -203 -223 -63 c-122 -34 -323 -91 -447 -126 -124 -35 -317 -89 -430 -121 -113 -31 -265 -75 -339 -96 -74 -21 -138 -39 -143 -39 -4 0 -7 93 -6 206 l3 207 135 37 c74 21 284 79 465 130 182 50 461 128 620 172 160 44 301 84 315 88 52 17 50 23 50 -192z m3510 -1187 c0 -818 -1 -869 -17 -876 -10 -3 -234 -83 -498 -176 -562 -199 -994 -354 -1049 -375 -21 -8 -40 -13 -42 -11 -2 2 -4 410 -4 908 l-1 904 53 18 c50 17 202 64 643 195 110 33 268 81 350 108 378 119 551 173 558 173 4 1 7 -390 7 -868z m-7216 750 c55 -17 193 -55 306 -86 305 -84 471 -130 715 -200 121 -35 346 -98 500 -139 154 -42 290 -81 303 -86 l23 -10 -4 -937 c-2 -548 -8 -937 -13 -937 -10 2 -578 182 -799 254 -82 27 -244 79 -360 115 -241 76 -650 207 -742 236 l-63 21 0 899 c0 818 1 899 16 899 9 0 62 -13 118 -29z m4421 -136 c209 -59 430 -120 490 -137 104 -28 370 -103 408 -114 16 -5 17 -58 17 -926 0 -866 -1 -920 -17 -914 -29 12 -711 230 -1028 330 l-300 94 -3 895 -2 896 27 -9 c16 -5 199 -57 408 -115z m-705 -806 c0 -489 -1 -889 -3 -889 -2 0 -183 -61 -402 -136 -220 -75 -512 -173 -650 -219 -137 -46 -315 -106 -394 -134 -79 -28 -146 -51 -148 -51 -1 0 -3 423 -3 939 l0 940 53 15 c28 8 142 40 252 70 297 81 779 217 1045 294 129 37 238 67 243 64 4 -2 7 -403 7 -893z" style="fill: rgb(126, 130, 153);"/>
    <path d="M6160 6856 c-140 -39 -270 -80 -287 -89 -91 -48 -82 -203 14 -244 29 -11 47 -13 82 -5 78 16 514 144 544 159 88 45 86 195 -3 240 -43 22 -88 14 -350 -61z" style="fill: rgb(126, 130, 153);"/>
    <path d="M8305 3802 c-11 -2 -80 -21 -152 -43 -455 -134 -447 -131 -469 -186 -42 -100 15 -197 116 -197 49 0 554 153 596 181 69 45 72 157 6 216 -23 21 -69 35 -97 29z" style="fill: rgb(126, 130, 153);"/>
    <path d="M4710 3620 c-52 -15 -166 -49 -254 -74 -87 -26 -170 -53 -186 -61 -40 -21 -64 -63 -64 -117 -1 -56 24 -95 78 -122 34 -17 41 -17 104 -3 111 26 505 147 530 163 75 49 64 187 -17 229 -42 21 -82 18 -191 -15z" style="fill: rgb(126, 130, 153);"/>
  </g>
</svg>